# xmcd
#
# Track frame offsets: 
#        150
#        14262
#        25412
#        37942
#        50307
#        61865
#        71215
#        81200
#        93745
#        103017
#        111935
#        123315
#        133935
#        147467
#        157222
#        168872
#        180065
#        191650
#        203980
#        216360
#
# Disc length: 3050 seconds
#
# Revision: 0
# Processed by: cddbd v1.4PL0 Copyright (c) Steve Scherf et al.
# Submitted via: ExactAudioCopy v0.90b3
#
DISCID=240be814
DTITLE=George Jones - Famous Country Music Makers
DYEAR=1900
DGENRE=Country
TTITLE0=Cold Cold Heart
TTITLE1=Swingin' Doors
TTITLE2=A Girl I Used To Know
TTITLE3=Let's Get Together (Duet With Melba Montgomery)
TTITLE4=The Bridge Washed Out
TTITLE5=The Race Is On
TTITLE6=Heartaches And Hangovers
TTITLE7=Don't Be Angry
TTITLE8=Living On Easy Street (Duet With Melba Montgomery)
TTITLE9=The Love Bug
TTITLE10=Talk Back Trembling Lips
TTITLE11=Ragged But Right
TTITLE12=Come Sundown
TTITLE13=Honky Tonk Downstairs
TTITLE14=We Must Have Been Out Of Our Minds (Duet With Melba Montgomer
TTITLE14=y)
TTITLE15=Ruby, Don't Take Your Love To Town
TTITLE16=The Fightin' Side Of Me
TTITLE17=Okie From Muskogee
TTITLE18=Blue Side Of Lonesome
TTITLE19=Take Me
EXTD=
EXTT0=
EXTT1=
EXTT2=
EXTT3=
EXTT4=
EXTT5=
EXTT6=
EXTT7=
EXTT8=
EXTT9=
EXTT10=
EXTT11=
EXTT12=
EXTT13=
EXTT14=
EXTT15=
EXTT16=
EXTT17=
EXTT18=
EXTT19=
PLAYORDER=
